<?xml version="1.0" encoding="UTF-8" standalone="no"?>
<!DOCTYPE svg PUBLIC "-//W3C//DTD SVG 1.1//EN"
 "http://www.w3.org/Graphics/SVG/1.1/DTD/svg11.dtd">
<!-- Generated by graphviz version 2.44.1 (20200629.0846)
 -->
<!-- Title: dependencies Pages: 1 -->
<svg width="709pt" height="211pt"
 viewBox="0.00 0.00 709.00 211.00" xmlns="http://www.w3.org/2000/svg" xmlns:xlink="http://www.w3.org/1999/xlink">
<g id="graph0" class="graph" transform="scale(1 1) rotate(0) translate(4 207)">
<title>dependencies</title>
<polygon fill="white" stroke="transparent" points="-4,4 -4,-207 705,-207 705,4 -4,4"/>
<text text-anchor="start" x="329.51" y="-42.4" font-family="sans-serif" font-weight="bold" font-size="14.00">Legend</text>
<polygon fill="#ffffb3" stroke="transparent" points="116.5,-10 116.5,-30 136.5,-30 136.5,-10 116.5,-10"/>
<text text-anchor="start" x="140.13" y="-15.4" font-family="sans-serif" font-size="14.00"> &#160;Declarations</text>
<polygon fill="#8dd3c7" stroke="transparent" points="229.5,-10 229.5,-30 249.5,-30 249.5,-10 229.5,-10"/>
<text text-anchor="start" x="253.23" y="-15.4" font-family="sans-serif" font-size="14.00"> &#160;Module</text>
<polygon fill="#80b1d3" stroke="transparent" points="315.5,-10 315.5,-30 335.5,-30 335.5,-10 315.5,-10"/>
<text text-anchor="start" x="339.28" y="-15.4" font-family="sans-serif" font-size="14.00"> &#160;Bootstrap</text>
<polygon fill="#fdb462" stroke="transparent" points="412.5,-10 412.5,-30 432.5,-30 432.5,-10 412.5,-10"/>
<text text-anchor="start" x="436.17" y="-15.4" font-family="sans-serif" font-size="14.00"> &#160;Providers</text>
<polygon fill="#fb8072" stroke="transparent" points="508.5,-10 508.5,-30 528.5,-30 528.5,-10 508.5,-10"/>
<text text-anchor="start" x="532.23" y="-15.4" font-family="sans-serif" font-size="14.00"> &#160;Exports</text>
<g id="clust1" class="cluster">
<title>cluster_ShoppingListModule</title>
<polygon fill="none" stroke="black" stroke-dasharray="1,5" points="8,-70 8,-195 693,-195 693,-70 8,-70"/>
</g>
<g id="clust5" class="cluster">
<title>cluster_ShoppingListModule_imports</title>
<polygon fill="none" stroke="black" points="373,-78 373,-130 685,-130 685,-78 373,-78"/>
</g>
<g id="clust2" class="cluster">
<title>cluster_ShoppingListModule_declarations</title>
<polygon fill="none" stroke="black" points="16,-78 16,-130 365,-130 365,-78 16,-78"/>
</g>
<!-- ShoppingEditComponent -->
<g id="node1" class="node">
<title>ShoppingEditComponent</title>
<polygon fill="#ffffb3" stroke="black" points="357.34,-122 198.66,-122 198.66,-86 357.34,-86 357.34,-122"/>
<text text-anchor="middle" x="278" y="-99.8" font-family="Times,serif" font-size="14.00">ShoppingEditComponent</text>
</g>
<!-- ShoppingListModule -->
<g id="node3" class="node">
<title>ShoppingListModule</title>
<polygon fill="#8dd3c7" stroke="black" points="441.5,-187 438.5,-191 417.5,-191 414.5,-187 306.5,-187 306.5,-151 441.5,-151 441.5,-187"/>
<text text-anchor="middle" x="374" y="-164.8" font-family="Times,serif" font-size="14.00">ShoppingListModule</text>
</g>
<!-- ShoppingEditComponent&#45;&gt;ShoppingListModule -->
<g id="edge1" class="edge">
<title>ShoppingEditComponent&#45;&gt;ShoppingListModule</title>
<path fill="none" stroke="black" d="M331.83,-122.11C331.83,-122.11 331.83,-140.99 331.83,-140.99"/>
<polygon fill="black" stroke="black" points="328.33,-140.99 331.83,-150.99 335.33,-140.99 328.33,-140.99"/>
</g>
<!-- ShoppingListComponent -->
<g id="node2" class="node">
<title>ShoppingListComponent</title>
<polygon fill="#ffffb3" stroke="black" points="180.28,-122 23.72,-122 23.72,-86 180.28,-86 180.28,-122"/>
<text text-anchor="middle" x="102" y="-99.8" font-family="Times,serif" font-size="14.00">ShoppingListComponent</text>
</g>
<!-- ShoppingListComponent&#45;&gt;ShoppingListModule -->
<g id="edge2" class="edge">
<title>ShoppingListComponent&#45;&gt;ShoppingListModule</title>
<path fill="none" stroke="black" d="M102,-122.11C102,-141.34 102,-169 102,-169 102,-169 296.41,-169 296.41,-169"/>
<polygon fill="black" stroke="black" points="296.41,-172.5 306.41,-169 296.41,-165.5 296.41,-172.5"/>
</g>
<!-- SharedModule -->
<g id="node4" class="node">
<title>SharedModule</title>
<polygon fill="#8dd3c7" stroke="black" points="677.42,-122 674.42,-126 653.42,-126 650.42,-122 578.58,-122 578.58,-86 677.42,-86 677.42,-122"/>
<text text-anchor="middle" x="628" y="-99.8" font-family="Times,serif" font-size="14.00">SharedModule</text>
</g>
<!-- SharedModule&#45;&gt;ShoppingListModule -->
<g id="edge3" class="edge">
<title>SharedModule&#45;&gt;ShoppingListModule</title>
<path fill="none" stroke="black" d="M628,-122.11C628,-141.34 628,-169 628,-169 628,-169 451.73,-169 451.73,-169"/>
<polygon fill="black" stroke="black" points="451.73,-165.5 441.73,-169 451.73,-172.5 451.73,-165.5"/>
</g>
<!-- ShoppingListRoutingModule -->
<g id="node5" class="node">
<title>ShoppingListRoutingModule</title>
<polygon fill="#8dd3c7" stroke="black" points="561.12,-122 558.12,-126 537.12,-126 534.12,-122 380.88,-122 380.88,-86 561.12,-86 561.12,-122"/>
<text text-anchor="middle" x="471" y="-99.8" font-family="Times,serif" font-size="14.00">ShoppingListRoutingModule</text>
</g>
<!-- ShoppingListRoutingModule&#45;&gt;ShoppingListModule -->
<g id="edge4" class="edge">
<title>ShoppingListRoutingModule&#45;&gt;ShoppingListModule</title>
<path fill="none" stroke="black" d="M411.22,-122.11C411.22,-122.11 411.22,-140.99 411.22,-140.99"/>
<polygon fill="black" stroke="black" points="407.72,-140.99 411.22,-150.99 414.72,-140.99 407.72,-140.99"/>
</g>
</g>
</svg>
